<svg width="44" height="45" viewBox="0 0 44 45" fill="none" xmlns="http://www.w3.org/2000/svg">
<path d="M22 14.2127C22 13.7298 21.6671 13.3107 21.1968 13.2014L3.97758 9.19837C3.32655 9.04702 2.70421 9.54128 2.70421 10.2097V17.2628C2.70421 17.7457 3.03707 18.1648 3.50738 18.2741L20.7266 22.2771C21.3777 22.4285 22 21.9342 22 21.2658V14.2127Z" fill="#635BFF"/>
<path d="M22.0273 32.2498C22.0273 31.7669 21.6945 31.3478 21.2242 31.2385L4.00492 27.2355C3.3539 27.0841 2.73155 27.5784 2.73155 28.2468V35.3C2.73155 35.7828 3.06441 36.2019 3.53472 36.3113L20.754 40.3143C21.405 40.4656 22.0273 39.9713 22.0273 39.303V32.2498Z" fill="#635BFF"/>
<path d="M41.2969 9.29958C41.2969 8.81673 40.964 8.39762 40.4937 8.28828L23.2745 4.28528C22.6234 4.13394 22.0011 4.6282 22.0011 5.29658V12.3498C22.0011 12.8326 22.3339 13.2517 22.8043 13.3611L40.0235 17.3641C40.6745 17.5154 41.2969 17.0211 41.2969 16.3528V9.29958Z" fill="#635BFF"/>
<path d="M41.2969 27.1404C41.2969 26.6576 40.964 26.2384 40.4937 26.1291L23.2745 22.1261C22.6234 21.9748 22.0011 22.469 22.0011 23.1374V30.1906C22.0011 30.6734 22.3339 31.0925 22.8043 31.2019L40.0235 35.2049C40.6745 35.3562 41.2969 34.862 41.2969 34.1936V27.1404Z" fill="#635BFF"/>
</svg>
